<?xml version="1.0" standalone="no"?>
<!DOCTYPE svg PUBLIC "-//W3C//DTD SVG 20010904//EN"
 "http://www.w3.org/TR/2001/REC-SVG-20010904/DTD/svg10.dtd">
<svg version="1.0" xmlns="http://www.w3.org/2000/svg"
 width="260.000000pt" height="260.000000pt" viewBox="0 0 260.000000 260.000000"
 preserveAspectRatio="xMidYMid meet">
<metadata>
Created by potrace 1.11, written by Peter Selinger 2001-2013
</metadata>
<g transform="translate(0.000000,260.000000) scale(0.100000,-0.100000)"
fill="#000000" stroke="none">
<path d="M520 2200 c-11 -11 -23 -38 -26 -60 -5 -33 -10 -40 -23 -34 -58 26
-150 11 -226 -37 -36 -23 -45 -34 -45 -57 0 -38 51 -106 96 -127 20 -9 33 -22
30 -28 -39 -89 -62 -159 -83 -256 -24 -105 -30 -120 -65 -159 -62 -68 -82
-122 -82 -227 -1 -84 2 -95 36 -167 79 -166 249 -280 477 -321 62 -11 67 -14
85 -50 32 -66 32 -108 0 -157 -23 -34 -29 -57 -32 -112 -5 -78 2 -92 63 -119
89 -41 247 -10 291 56 15 23 15 33 5 78 -6 29 -20 67 -31 85 -14 23 -20 50
-20 93 l0 60 42 -3 43 -3 14 -63 c13 -57 13 -67 -3 -112 -10 -27 -20 -77 -23
-110 -6 -57 -4 -63 23 -92 55 -58 130 -73 221 -42 26 9 62 28 80 41 29 22 33
31 33 69 l0 45 30 -23 c47 -34 149 -37 215 -5 l49 23 16 -30 c22 -44 108 -86
174 -86 62 0 124 27 155 66 32 40 26 125 -12 183 -27 41 -27 41 -13 104 8 34
33 114 56 177 23 63 58 166 78 227 37 113 52 137 52 85 0 -15 14 -49 30 -75
17 -26 30 -61 30 -78 0 -41 15 -66 49 -83 25 -14 57 -15 195 -7 5 1 6 21 4 45
-12 100 -78 172 -151 163 -34 -5 -39 -2 -53 25 -13 25 -14 53 -8 167 4 95 3
149 -5 173 -13 38 -64 92 -97 102 -13 4 -33 29 -50 61 -62 124 -184 241 -319
309 -85 43 -261 86 -351 86 -56 0 -62 2 -95 36 -58 61 -114 78 -195 60 -30 -7
-32 -5 -38 28 -7 37 -50 80 -70 69 -6 -4 -25 -17 -42 -30 -28 -21 -36 -23 -75
-14 -54 13 -211 14 -261 2 -40 -9 -67 3 -101 46 -23 28 -51 29 -77 3z m59
-107 c-23 -13 -43 -23 -45 -23 -9 0 -3 73 7 92 11 20 12 19 45 -13 l34 -33
-41 -23z m529 1 l5 -47 -39 28 c-21 16 -41 30 -43 32 -2 1 10 13 25 27 35 30
45 22 52 -40z m-99 -4 c159 -85 247 -272 272 -578 5 -72 7 -137 4 -142 -4 -6
-19 0 -38 14 -184 138 -712 203 -941 115 -28 -10 -52 -19 -53 -19 -3 0 27 126
48 203 l22 77 36 -7 c61 -12 93 -6 117 24 19 25 30 28 106 34 100 8 127 22
166 88 24 41 27 55 27 140 l-1 94 87 -5 c73 -5 96 -10 148 -38z m-564 -16 c18
-8 36 -22 39 -30 7 -19 -9 -18 -39 2 -18 12 -35 14 -62 9 -50 -9 -113 -42
-113 -59 0 -17 68 -76 87 -76 7 0 13 -5 13 -11 0 -6 -7 -8 -16 -5 -9 3 -19 6
-24 6 -16 0 -71 52 -85 81 l-15 29 52 26 c92 47 116 51 163 28z m863 -28 c21
-13 46 -36 56 -51 17 -26 17 -28 -1 -47 -43 -47 -153 -78 -153 -43 0 8 8 14
18 13 47 -4 75 5 104 32 l33 30 -23 20 c-50 42 -111 46 -189 14 -27 -12 -11
17 20 36 43 27 89 25 135 -4z m-868 -21 c9 -11 6 -22 -20 -54 -29 -36 -34 -38
-60 -30 -15 6 -38 21 -50 34 l-23 25 34 14 c19 7 41 16 49 19 28 10 58 7 70
-8z m855 -22 c41 -20 43 -27 13 -47 -55 -34 -109 -32 -129 6 -10 18 -8 24 11
40 28 22 59 23 105 1z m206 -153 c6 -128 21 -175 72 -229 58 -61 122 -74 224
-47 47 13 55 12 85 -5 94 -52 111 -57 168 -49 30 4 63 11 72 15 13 5 19 -2 27
-32 22 -76 31 -169 24 -228 l-8 -60 -61 3 c-93 6 -162 -29 -190 -95 -11 -26
-11 -39 0 -77 12 -39 12 -53 0 -93 -20 -66 -6 -111 52 -162 l45 -40 -20 -74
c-12 -40 -21 -85 -21 -98 0 -28 -29 -64 -60 -74 -28 -9 -83 11 -107 38 -19 22
-50 116 -74 230 -7 31 -16 57 -21 57 -5 0 -7 -8 -3 -19 5 -16 -5 -21 -72 -39
-94 -25 -235 -52 -272 -52 -25 0 -27 2 -23 38 3 20 1 34 -3 30 -14 -13 -34
-140 -35 -214 0 -87 -11 -99 -86 -99 -70 0 -87 18 -109 118 -18 85 -39 142
-55 152 -13 8 -13 -11 1 -37 11 -20 9 -20 -53 -13 -34 4 -73 11 -86 16 -31 12
-55 11 -47 -1 3 -5 21 -12 40 -16 l33 -6 -5 -76 c-3 -43 -11 -80 -17 -84 -17
-12 -102 -9 -129 3 -20 9 -26 21 -32 63 -3 28 -15 70 -25 94 l-19 42 54 0
c207 0 398 72 514 194 70 74 91 123 91 212 0 78 -11 121 -47 174 -20 31 -23
46 -23 135 0 116 -21 262 -51 354 -24 71 -22 75 43 85 27 4 49 18 76 46 33 35
41 39 82 37 l45 -2 6 -115z m-616 -355 c183 -32 311 -84 382 -155 58 -58 77
-101 81 -192 4 -69 1 -82 -24 -128 -57 -105 -199 -205 -349 -245 -139 -37
-331 -29 -475 20 -107 36 -168 74 -241 145 -86 86 -123 160 -127 257 -9 177
87 281 290 312 85 13 352 5 463 -14z m1325 -5 c16 -11 36 -41 46 -66 16 -42
16 -56 4 -170 l-13 -124 25 -50 c27 -54 18 -62 -16 -16 -19 24 -21 43 -22 154
-1 165 0 157 -29 188 -14 15 -25 34 -25 43 0 9 -3 26 -6 39 -8 27 0 28 36 2z
m-498 -737 c6 -22 -18 -83 -32 -83 -6 0 -15 12 -21 28 -10 25 -11 26 -24 8
-15 -20 -35 -14 -35 12 -1 15 -3 14 -15 -3 -37 -51 -55 -55 -55 -11 0 20 10
25 83 43 45 11 85 21 88 22 4 1 9 -7 11 -16z m-228 -45 c14 -6 28 -19 31 -29
8 -24 28 -30 58 -14 13 7 37 10 51 8 24 -5 26 -8 20 -42 -10 -53 -20 -61 -83
-61 -74 0 -101 18 -101 68 0 20 -4 44 -9 52 -9 13 -6 30 4 30 2 0 15 -5 29
-12z m-78 -26 c21 -13 27 -70 9 -88 -8 -9 -21 -36 -27 -60 -7 -24 -15 -44 -18
-44 -15 0 -30 61 -30 121 0 62 2 68 23 72 12 2 24 5 27 5 3 1 10 -2 16 -6z
m332 -86 c10 -39 9 -50 -7 -86 l-18 -41 -11 38 c-5 21 -16 53 -24 71 -12 31
-11 35 6 48 31 22 41 17 54 -30z m-983 -83 c-15 -36 -35 -118 -35 -146 0 -25
-2 -28 -15 -17 -8 7 -15 27 -15 44 0 37 44 136 61 136 7 0 8 -7 4 -17z m1020
-49 c-8 -32 -15 -69 -15 -81 0 -13 -5 -23 -11 -23 -16 0 -6 84 15 134 24 54
29 40 11 -30z m-650 -1 c-13 -30 -34 -136 -29 -145 3 -4 0 -8 -7 -8 -15 0 -7
116 10 148 14 26 37 30 26 5z"/>
<path d="M520 1710 c-40 -40 -11 -110 45 -110 32 0 65 33 65 65 0 14 -9 34
-20 45 -11 11 -31 20 -45 20 -14 0 -34 -9 -45 -20z m40 -20 c0 -11 -6 -20 -13
-20 -19 0 -27 10 -20 26 8 21 33 17 33 -6z"/>
<path d="M975 1692 c-46 -9 -64 -91 -25 -112 61 -33 126 19 98 77 -14 28 -41
42 -73 35z m13 -35 c2 -12 -3 -17 -17 -17 -12 0 -21 6 -21 13 0 31 32 34 38 4z"/>
<path d="M1483 1470 c-38 -15 -56 -55 -49 -106 4 -35 1 -57 -14 -91 -11 -25
-20 -54 -20 -65 0 -28 27 -76 49 -88 28 -15 86 -12 128 5 20 9 66 15 108 15
81 0 112 16 141 72 30 59 -16 158 -74 158 -34 0 -86 31 -107 64 -27 40 -107
58 -162 36z"/>
<path d="M455 1346 c-39 -39 -11 -86 52 -86 62 0 83 79 26 101 -37 14 -52 11
-78 -15z"/>
<path d="M905 1316 c-16 -12 -18 -19 -10 -43 6 -15 24 -34 40 -42 25 -12 32
-12 54 0 31 17 39 60 16 83 -20 20 -74 21 -100 2z"/>
</g>
</svg>
